<svg xmlns="http://www.w3.org/2000/svg" width="1200" height="675" viewBox="0 0 1200 675">
  <rect width="1200" height="675" fill="#070807"/>
  <linearGradient id="l" x1="0" y1="0" x2="1" y2="1"><stop stop-color="#0b1720"/><stop offset="1" stop-color="#10100b"/></linearGradient>
  <rect width="1200" height="675" fill="url(#l)"/>
  <g fill="#111b22" stroke="#8bd3ff" stroke-opacity=".32" stroke-width="3">
    <rect x="135" y="160" width="150" height="105"/><rect x="345" y="120" width="180" height="130"/><rect x="590" y="168" width="145" height="105"/>
    <rect x="805" y="118" width="190" height="150"/><rect x="265" y="350" width="180" height="120"/><rect x="520" y="365" width="190" height="130"/>
    <rect x="790" y="370" width="230" height="115"/>
  </g>
  <g stroke="#f97316" stroke-width="8" stroke-linecap="square" stroke-opacity=".72">
    <path d="M285 213h60M525 185h65M735 220h70M355 265v85M445 410h75M710 430h80"/>
  </g>
  <g fill="#8bd3ff">
    <circle cx="210" cy="212" r="9"/><circle cx="435" cy="185" r="9"/><circle cx="662" cy="220" r="9"/><circle cx="900" cy="193" r="9"/>
    <circle cx="355" cy="410" r="9"/><circle cx="615" cy="430" r="9"/><circle cx="905" cy="428" r="9"/>
  </g>
  <path d="M90 562h1020" stroke="#8bd3ff" stroke-opacity=".2"/>
  <text x="96" y="96" fill="#8bd3ff" font-family="monospace" font-size="22">SEED: 7F3A-LOCK-KEY-CRITICAL-PATH</text>
  <text x="76" y="616" fill="#fff" font-family="Arial" font-size="42" font-weight="700">Procedural Dungeon Generator</text>
</svg>
